<?xml version="1.0" encoding="utf-8" ?><svg xmlns="http://www.w3.org/2000/svg" xmlns:xlink="http://www.w3.org/1999/xlink" width="261" height="89" viewBox="0 0 261 89"><clipPath id="cl_3"><rect x="6.0558319e-05" y="-1.335144e-05" width="261" height="89.000008"/></clipPath><g clip-path="url(#cl_3)"><path fill="#FEFEFE" transform="matrix(0.823344 0 0 0.824074 -7.41003 -27.1945)" d="M207.85 40.8909C208.897 40.7731 210.281 40.7748 211.362 40.7496C211.674 44.1149 211.465 49.8774 211.525 53.3978C211.571 56.1169 211.683 62.9912 211.324 65.3194C208.788 65.5918 204.68 65.4828 202.029 65.4716C198.387 65.4563 194.129 65.5505 190.543 65.2726C186.946 68.6548 179.274 80.6133 174.598 81.1937C169.156 81.869 163.028 82.3656 157.427 83.378C157.596 87.6005 157.034 91.6142 156.964 95.9094C157.025 99.0667 154.81 104.905 155.728 107.666C156.316 109.437 167.121 109.032 168.658 109.031L185.987 109.017C187.156 90.756 211.44 92.2791 211.497 107.108C211.526 114.704 211.868 125.506 211.43 133.037C208.803 133.497 205.576 133.316 202.848 133.308L190.375 133.281C186.13 133.297 181.676 133.262 177.504 133.294C148.606 133.516 118.007 119.02 117.175 86.5447C116.885 75.2443 119.456 65.0918 127.512 56.6339C141.107 42.3593 161.155 41.1058 179.648 41.3798C188.978 41.4749 198.553 41.1614 207.85 40.8909Z"/><path fill="#FEFEFE" transform="matrix(0.823344 0 0 0.824074 -7.41003 -27.1945)" d="M15.3356 40.4248C19.165 41.4298 28.0043 41.0646 32.2464 41.1876C54.9036 41.845 80.2098 38.4406 97.9767 55.8909C113.94 71.5693 112.424 101.006 96.7418 116.27C77.8365 134.671 54.3835 133.322 30.125 133.282C27.9535 133.26 16.4664 133.778 15.4594 132.787C14.6395 130.586 14.9203 113.843 15.086 110.595C26.1576 112.201 43.8649 110.475 55.4407 110.699C56.0321 110.711 74.5358 93.9695 76.7025 92.0534L88.1442 81.9114C89.9058 80.3675 91.4001 79.2998 93.1584 77.6498C93.0775 77.5645 93.0174 77.453 92.9157 77.394C92.1112 76.9275 41.0288 78.3811 34.6394 77.0807C26.2529 69.3256 32.0867 70.1571 18.8598 69.9003C18.2124 69.2706 15.8264 66.6949 15.699 66.1727C14.7707 62.369 14.3866 43.006 15.3356 40.4248Z"/><path fill="#FEFEFE" transform="matrix(0.823344 0 0 0.824074 -7.41003 -27.1945)" d="M265.289 39.9998C270.141 39.7961 276.531 40.002 281.506 40.0109C283.23 41.702 286.295 49.3466 287.488 52.0069L296.862 73.0101C304.606 90.2963 313.032 108.321 320.267 125.754C316.249 124.167 309.132 120.125 305.414 117.735C303.76 116.671 299.681 112.754 298.015 111.218L287.069 101.171L274.172 89.4155C271.713 87.1819 269.237 85.1143 266.929 82.7126C264.525 82.7354 252.761 83.0637 251.077 82.6725C251.742 85.6428 252.522 88.273 253.396 91.1877C253.468 91.6097 253.588 92.0154 253.707 92.426C256.285 101.329 258.596 110.307 261.172 119.211C257.611 119.87 251.713 121.907 254.212 126.997C256.4 131.453 265.926 130.604 267.336 132.942L267.089 133.342C266.174 133.575 257.743 133.566 256.366 133.58L232.972 133.641C228.841 133.648 223.006 133.829 218.981 133.536L218.86 133.022C219.335 131.176 221.397 127.263 222.321 125.424L227.953 114.196L250.776 68.5922L259.956 50.1755C261.259 47.5569 263.76 42.1992 265.289 39.9998Z"/><path fill="#FEFEFE" transform="matrix(0.823344 0 0 0.824074 -7.41003 -27.1945)" d="M75.6422 141.103C79.1536 141.034 83.5782 141.376 86.6063 143.172C97.7924 149.807 94.8318 164.677 83.0491 168.501C80.8686 169.091 71.8114 168.691 68.4718 168.812L68.3271 168.654C68.6946 168.093 70.2715 166.013 70.2353 165.486C69.7572 158.521 70.3399 151.509 69.8274 144.561C69.6677 142.396 68.3227 143.164 68.0107 141.767C68.6225 141.149 69.8835 141.559 70.8719 141.525C72.492 141.468 74.0357 141.29 75.6422 141.103ZM85.125 166.246C94.6705 160.832 90.6054 142.026 77.6694 142.594C76.4094 142.691 74.9164 142.704 73.8106 143.254C72.8309 144.558 73.7126 160.564 73.2748 163.349C72.368 169.118 81.7916 168.065 85.125 166.246Z"/><path fill="#FEFEFE" transform="matrix(0.823344 0 0 0.824074 -7.41003 -27.1945)" d="M178.295 140.619C179.308 140.947 180.625 145.248 181.108 146.503L185.953 159.028C186.757 161.122 188.064 164.842 189.076 166.714C189.879 167.056 190.986 167.378 191.356 168.095C190.604 169.08 186.625 168.52 185.276 168.735C184.353 168.881 183.627 169.033 182.72 169.259C183.476 168.294 184.49 167.415 185.398 166.578C184.349 163.874 183.34 160.83 182.362 158.076C180.844 158.203 179.035 158.194 177.491 158.224C175.807 158.319 173.903 158.274 172.201 158.27C170.953 160.202 169.239 164.338 168.647 166.588C169.894 167.282 171.025 168.014 172.222 168.782C168.565 168.749 167.83 168.262 163.912 169.198C170.768 161.235 172.761 149.41 178.295 140.619ZM172.781 156.309C173.964 156.293 175.811 156.205 176.937 156.256C178.485 156.244 180.304 156.277 181.828 156.201C180.722 154.178 178.283 146.981 177.402 146.359C176.031 149.389 174.328 153.451 172.781 156.309Z"/><path fill="#FEFEFE" transform="matrix(0.823344 0 0 0.824074 -7.41003 -27.1945)" d="M31.253 140.64L31.6289 140.755C32.1577 141.191 40.8626 164.064 41.8885 166.721C42.9186 167.089 43.6873 167.255 44.2278 168.132C43.4779 168.799 37.8329 168.728 35.5871 169.13C36.4067 168.272 37.4408 167.404 38.3438 166.611C37.3729 163.727 36.3366 160.943 35.273 158.095C33.6879 158.192 31.9621 158.188 30.364 158.215C28.6796 158.305 26.8176 158.285 25.118 158.302C23.7558 160.45 22.3397 164.147 21.5336 166.586C22.4793 167.074 23.2085 167.383 23.9647 168.143L23.9447 168.494C23.3352 168.749 19.3386 168.637 17.0167 169.163C17.6003 168.401 19.1147 166.689 19.5059 165.948C22.5881 160.11 25.0066 153.71 27.7832 147.71C28.7233 145.679 30.0886 142.386 31.253 140.64ZM25.7394 156.313L29.9375 156.251C31.4283 156.24 33.3139 156.281 34.7712 156.196C33.8713 154.452 31.0873 146.909 30.3897 146.376C29.2373 148.856 26.9795 154.136 25.7394 156.313Z"/><path fill="#FEFEFE" transform="matrix(0.823344 0 0 0.824074 -7.41003 -27.1945)" d="M275.807 140.641C276.641 141.245 285.383 164.221 286.242 166.606C287.047 166.965 288.231 167.388 288.68 168.105C287.896 169.087 284.018 168.473 282.655 168.707C281.663 168.877 281.009 169.013 280.028 169.274C281.132 167.942 281.491 167.568 282.849 166.503C282.023 164.673 280.224 159.818 279.73 157.936C278.387 158.195 277.35 158.184 275.983 158.21L269.304 158.406C267.991 160.833 267.098 163.892 265.678 166.518C267.408 167.362 267.78 167.593 269.337 168.786C266.233 168.581 264.595 168.35 261.499 169.082C266.49 163.068 268.821 154.506 272.329 147.477C273.338 145.455 274.393 142.4 275.807 140.641ZM270.241 156.29C271.459 156.279 273.269 156.203 274.438 156.261L279.238 156.261C278.528 154.896 275.366 146.672 274.795 146.374C273.385 148.627 271.544 153.612 270.241 156.29Z"/><path fill="#FEFEFE" transform="matrix(0.823344 0 0 0.824074 -7.41003 -27.1945)" d="M212.988 141.01C218.723 141.574 219.473 144.951 222.889 148.334C224.452 149.882 234.465 162.206 235.749 162.58C236.072 162.127 235.956 160.423 235.975 159.765C236.131 154.279 236.596 148.664 235.204 143.295C234.178 142.99 232.747 142.756 232.332 141.7C232.86 141.285 238.611 141.329 240.389 141.126C239.633 141.975 238.694 142.754 237.835 143.509C237.47 145.565 237.624 149.743 237.641 152.039L237.707 165.687C237.745 166.698 237.869 167.634 237.469 168.557L237.056 168.57C234.74 167.25 221.586 151.581 218.754 148.302C219.217 152.615 218.872 162.007 218.863 166.789C219.908 167.385 220.967 167.965 222.021 168.547C218.585 168.861 217.895 168.145 213.708 169.111C214.603 167.955 216.447 166.813 216.615 165.558C217.352 160.072 216.887 153.663 216.98 148.177C217.018 145.912 215.097 143.057 213.29 142.012C212.917 141.797 212.999 141.485 212.988 141.01Z"/><path fill="#FEFEFE" fill-opacity="0.98039216" transform="matrix(0.823344 0 0 0.824074 -7.41003 -27.1945)" d="M143.087 141.373C143.322 141.339 143.749 141.362 144 141.366L144.155 141.737C143.771 142.66 143.192 143.111 142.473 143.79C142.128 151.985 145.228 167.722 133.493 168.9C114.789 170.777 120.846 154.228 119.267 143.356C118.493 142.953 118.103 142.731 117.398 142.22L117.398 141.851L118.062 141.585C120.086 141.849 123.106 141.498 125.195 141.317C123.411 142.986 122.237 144.455 122.456 147.039C122.849 151.681 122.213 157.824 123.179 162.261C124.714 169.32 137.17 168.993 139.805 162.85C141.699 158.435 141.005 152.467 141.225 147.718C141.341 145.124 140.531 143.305 138.727 141.528C140.231 141.533 141.592 141.46 143.087 141.373Z"/><path fill="#FEFEFE" transform="matrix(0.823344 0 0 0.824074 -7.41003 -27.1945)" d="M317.66 141.06C320.546 140.759 323.521 141.905 326.337 142.586C326.535 143.572 327.131 145.979 326.785 146.862C325.897 146.752 322.701 142.108 319.165 142.378C318.002 142.283 315.513 142.877 314.756 143.926C309.209 151.887 322.434 151.816 326.243 156.028C330.096 160.288 327.662 166.624 322.588 168.446C321.087 168.985 320.191 169.028 318.529 169.024C316.818 168.98 314.284 168.79 312.791 167.931C311.807 166.637 310.77 163.25 310.837 161.58L311.144 161.339C312.259 161.974 313.111 166.461 317.645 167.424C321.713 168.288 327.228 165.103 325.884 160.786C324.263 155.578 312.384 156.507 311.339 149.819C310.423 145.218 313.323 141.896 317.66 141.06Z"/></g></svg>